<mxfile host="app.diagrams.net" modified="2023-05-26T07:41:12.351Z" agent="Mozilla/5.0 (Windows NT 10.0; Win64; x64) AppleWebKit/537.36 (KHTML, like Gecko) Chrome/113.0.0.0 Safari/537.36" etag="45HZhrgNYa0pTpgicAUa" version="21.3.4" type="github">
  <diagram name="Page-1" id="74e2e168-ea6b-b213-b513-2b3c1d86103e">
    <mxGraphModel dx="2054" dy="608" grid="1" gridSize="10" guides="1" tooltips="1" connect="1" arrows="1" fold="1" page="1" pageScale="1" pageWidth="1100" pageHeight="850" background="none" math="0" shadow="0">
      <root>
        <mxCell id="0" />
        <mxCell id="1" parent="0" />
        <mxCell id="77e6c97f196da883-1" value="Pool" style="swimlane;html=1;childLayout=stackLayout;startSize=20;rounded=0;shadow=0;labelBackgroundColor=none;strokeWidth=1;fontFamily=Verdana;fontSize=8;align=center;" parent="1" vertex="1">
          <mxGeometry x="70" y="40" width="620" height="750" as="geometry" />
        </mxCell>
        <mxCell id="77e6c97f196da883-2" value="KDN上门取件" style="swimlane;html=1;startSize=20;" parent="77e6c97f196da883-1" vertex="1">
          <mxGeometry y="20" width="220" height="730" as="geometry" />
        </mxCell>
        <mxCell id="lTDu7zyEloJL5QRPxP0K-20" value="获取结算渠道" style="rounded=1;whiteSpace=wrap;html=1;" vertex="1" parent="77e6c97f196da883-2">
          <mxGeometry x="59" y="140" width="120" height="60" as="geometry" />
        </mxCell>
        <mxCell id="lTDu7zyEloJL5QRPxP0K-21" style="edgeStyle=orthogonalEdgeStyle;rounded=0;orthogonalLoop=1;jettySize=auto;html=1;exitX=0.5;exitY=1;exitDx=0;exitDy=0;" edge="1" parent="77e6c97f196da883-2" source="lTDu7zyEloJL5QRPxP0K-22" target="lTDu7zyEloJL5QRPxP0K-20">
          <mxGeometry relative="1" as="geometry" />
        </mxCell>
        <mxCell id="lTDu7zyEloJL5QRPxP0K-22" value="start" style="ellipse;whiteSpace=wrap;html=1;aspect=fixed;" vertex="1" parent="77e6c97f196da883-2">
          <mxGeometry x="99" y="50" width="40" height="40" as="geometry" />
        </mxCell>
        <mxCell id="lTDu7zyEloJL5QRPxP0K-25" value="获取updateTime&amp;gt;D-1的订单数据（数据分批）" style="whiteSpace=wrap;html=1;rounded=1;" vertex="1" parent="77e6c97f196da883-2">
          <mxGeometry x="59" y="249" width="120" height="60" as="geometry" />
        </mxCell>
        <mxCell id="lTDu7zyEloJL5QRPxP0K-18" value="" style="edgeStyle=orthogonalEdgeStyle;rounded=0;orthogonalLoop=1;jettySize=auto;html=1;" edge="1" parent="77e6c97f196da883-2" source="lTDu7zyEloJL5QRPxP0K-20" target="lTDu7zyEloJL5QRPxP0K-25">
          <mxGeometry relative="1" as="geometry" />
        </mxCell>
        <mxCell id="lTDu7zyEloJL5QRPxP0K-27" value="根据订单获取地址、重量、费用" style="whiteSpace=wrap;html=1;rounded=1;" vertex="1" parent="77e6c97f196da883-2">
          <mxGeometry x="59" y="350" width="120" height="60" as="geometry" />
        </mxCell>
        <mxCell id="lTDu7zyEloJL5QRPxP0K-23" value="" style="edgeStyle=orthogonalEdgeStyle;rounded=0;orthogonalLoop=1;jettySize=auto;html=1;" edge="1" parent="77e6c97f196da883-2" source="lTDu7zyEloJL5QRPxP0K-25" target="lTDu7zyEloJL5QRPxP0K-27">
          <mxGeometry relative="1" as="geometry" />
        </mxCell>
        <mxCell id="lTDu7zyEloJL5QRPxP0K-28" value="&lt;pre style=&quot;background-color: rgb(43, 43, 43); color: rgb(169, 183, 198); font-family: &amp;quot;JetBrains Mono&amp;quot;, monospace;&quot;&gt;&lt;pre style=&quot;font-family: &amp;quot;JetBrains Mono&amp;quot;, monospace;&quot;&gt;&lt;font style=&quot;font-size: 6px;&quot;&gt;select c.*&lt;br&gt;from or_appointment_channel c&lt;br&gt;    &lt;span style=&quot;color: rgb(204, 120, 50);&quot;&gt;left join &lt;/span&gt;or_appointment_channel_config&lt;/font&gt;&lt;/pre&gt;&lt;pre style=&quot;font-family: &amp;quot;JetBrains Mono&amp;quot;, monospace;&quot;&gt;&lt;font style=&quot;font-size: 6px;&quot;&gt; cc &lt;span style=&quot;color: rgb(204, 120, 50);&quot;&gt;on &lt;/span&gt;c.&lt;span style=&quot;color: rgb(152, 118, 170);&quot;&gt;id &lt;/span&gt;= cc.&lt;span style=&quot;color: rgb(152, 118, 170);&quot;&gt;channel_id&lt;br&gt;&lt;/span&gt;&lt;span style=&quot;color: rgb(204, 120, 50);&quot;&gt;where &lt;/span&gt;cc.&lt;span style=&quot;color: rgb(152, 118, 170);&quot;&gt;settlement_node &lt;/span&gt;&lt;span style=&quot;color: rgb(204, 120, 50);&quot;&gt;is not null &lt;/span&gt;&lt;/font&gt;&lt;/pre&gt;&lt;/pre&gt;" style="shape=document;whiteSpace=wrap;html=1;boundedLbl=1;rounded=1;align=left;size=0.3125;" vertex="1" parent="77e6c97f196da883-2">
          <mxGeometry x="-280" y="30" width="160" height="60" as="geometry" />
        </mxCell>
        <mxCell id="lTDu7zyEloJL5QRPxP0K-19" value="" style="edgeStyle=orthogonalEdgeStyle;rounded=0;orthogonalLoop=1;jettySize=auto;html=1;entryX=1;entryY=0.5;entryDx=0;entryDy=0;" edge="1" parent="77e6c97f196da883-2" source="lTDu7zyEloJL5QRPxP0K-20" target="lTDu7zyEloJL5QRPxP0K-28">
          <mxGeometry relative="1" as="geometry" />
        </mxCell>
        <mxCell id="lTDu7zyEloJL5QRPxP0K-29" value="&lt;pre style=&quot;background-color: rgb(43, 43, 43); color: rgb(169, 183, 198); font-family: &amp;quot;JetBrains Mono&amp;quot;, monospace;&quot;&gt;&lt;font style=&quot;font-size: 6px;&quot;&gt;# &lt;span style=&quot;color: rgb(128, 128, 128); font-family: 宋体, monospace;&quot;&gt;揽件结算&lt;br&gt;&lt;/span&gt;&lt;span style=&quot;color: rgb(204, 120, 50);&quot;&gt;select &lt;/span&gt;&lt;span style=&quot;color: rgb(152, 118, 170);&quot;&gt;kdn_order_code&lt;br&gt;&lt;/span&gt;&lt;span style=&quot;color: rgb(204, 120, 50);&quot;&gt;from &lt;/span&gt;or_appointment_order&lt;br&gt;&lt;span style=&quot;color: rgb(204, 120, 50);&quot;&gt;where &lt;/span&gt;&lt;span style=&quot;color: rgb(152, 118, 170);&quot;&gt;order_state &lt;/span&gt;&lt;span style=&quot;color: rgb(204, 120, 50);&quot;&gt;in &lt;/span&gt;(&lt;span style=&quot;color: rgb(104, 151, 187);&quot;&gt;301&lt;/span&gt;&lt;span style=&quot;color: rgb(204, 120, 50);&quot;&gt;, &lt;/span&gt;&lt;span style=&quot;color: rgb(104, 151, 187);&quot;&gt;1&lt;/span&gt;&lt;span style=&quot;color: rgb(204, 120, 50);&quot;&gt;, &lt;/span&gt;&lt;span style=&quot;color: rgb(104, 151, 187);&quot;&gt;2&lt;/span&gt;&lt;span style=&quot;color: rgb(204, 120, 50);&quot;&gt;, &lt;/span&gt;&lt;span style=&quot;color: rgb(104, 151, 187);&quot;&gt;3&lt;/span&gt;&lt;span style=&quot;color: rgb(204, 120, 50);&quot;&gt;, &lt;/span&gt;&lt;span style=&quot;color: rgb(104, 151, 187);&quot;&gt;4&lt;/span&gt;)&lt;br&gt;  &lt;span style=&quot;color: rgb(204, 120, 50);&quot;&gt;and &lt;/span&gt;&lt;span style=&quot;color: rgb(255, 198, 109); font-style: italic;&quot;&gt;TO_DAYS&lt;/span&gt;(&lt;span style=&quot;color: rgb(255, 198, 109); font-style: italic;&quot;&gt;NOW&lt;/span&gt;()) - &lt;span style=&quot;color: rgb(255, 198, 109); font-style: italic;&quot;&gt;TO_DAYS&lt;/span&gt;(&lt;span style=&quot;color: rgb(152, 118, 170);&quot;&gt;update_time&lt;/span&gt;) = &lt;span style=&quot;color: rgb(104, 151, 187);&quot;&gt;1&lt;br&gt;&lt;/span&gt;&lt;span style=&quot;color: rgb(204, 120, 50);&quot;&gt;;&lt;br&gt;&lt;/span&gt;&lt;span style=&quot;color: rgb(204, 120, 50);&quot;&gt;&lt;br&gt;&lt;/span&gt;&lt;span style=&quot;color: rgb(128, 128, 128);&quot;&gt;# &lt;/span&gt;&lt;span style=&quot;color: rgb(128, 128, 128); font-family: 宋体, monospace;&quot;&gt;签收结算&lt;br&gt;&lt;/span&gt;&lt;span style=&quot;color: rgb(204, 120, 50);&quot;&gt;select &lt;/span&gt;&lt;span style=&quot;color: rgb(152, 118, 170);&quot;&gt;kdn_order_code&lt;br&gt;&lt;/span&gt;&lt;span style=&quot;color: rgb(204, 120, 50);&quot;&gt;from &lt;/span&gt;or_appointment_order&lt;br&gt;&lt;span style=&quot;color: rgb(204, 120, 50);&quot;&gt;where &lt;/span&gt;&lt;span style=&quot;color: rgb(152, 118, 170);&quot;&gt;order_state &lt;/span&gt;= &lt;span style=&quot;color: rgb(104, 151, 187);&quot;&gt;3&lt;br&gt;&lt;/span&gt;&lt;span style=&quot;color: rgb(104, 151, 187);&quot;&gt;  &lt;/span&gt;&lt;span style=&quot;color: rgb(204, 120, 50);&quot;&gt;and &lt;/span&gt;&lt;span style=&quot;color: rgb(255, 198, 109); font-style: italic;&quot;&gt;TO_DAYS&lt;/span&gt;(&lt;span style=&quot;color: rgb(255, 198, 109); font-style: italic;&quot;&gt;NOW&lt;/span&gt;()) - &lt;span style=&quot;color: rgb(255, 198, 109); font-style: italic;&quot;&gt;TO_DAYS&lt;/span&gt;(&lt;span style=&quot;color: rgb(152, 118, 170);&quot;&gt;update_time&lt;/span&gt;) = &lt;span style=&quot;color: rgb(104, 151, 187);&quot;&gt;1&lt;br&gt;&lt;/span&gt;&lt;span style=&quot;color: rgb(204, 120, 50);&quot;&gt;;&lt;/span&gt;&lt;/font&gt;&lt;/pre&gt;" style="shape=document;whiteSpace=wrap;html=1;boundedLbl=1;rounded=1;" vertex="1" parent="77e6c97f196da883-2">
          <mxGeometry x="-280" y="239" width="250" height="80" as="geometry" />
        </mxCell>
        <mxCell id="lTDu7zyEloJL5QRPxP0K-24" value="" style="edgeStyle=orthogonalEdgeStyle;rounded=0;orthogonalLoop=1;jettySize=auto;html=1;" edge="1" parent="77e6c97f196da883-2" source="lTDu7zyEloJL5QRPxP0K-25" target="lTDu7zyEloJL5QRPxP0K-29">
          <mxGeometry relative="1" as="geometry" />
        </mxCell>
        <mxCell id="77e6c97f196da883-3" value="KDN上门取件Kafka" style="swimlane;html=1;startSize=20;" parent="77e6c97f196da883-1" vertex="1">
          <mxGeometry x="220" y="20" width="200" height="730" as="geometry" />
        </mxCell>
        <mxCell id="lTDu7zyEloJL5QRPxP0K-31" value="Topic：async_bill_detail_data" style="whiteSpace=wrap;html=1;rounded=1;" vertex="1" parent="77e6c97f196da883-3">
          <mxGeometry x="40" y="350" width="120" height="60" as="geometry" />
        </mxCell>
        <mxCell id="lTDu7zyEloJL5QRPxP0K-26" value="" style="edgeStyle=orthogonalEdgeStyle;rounded=0;orthogonalLoop=1;jettySize=auto;html=1;" edge="1" parent="77e6c97f196da883-1" source="lTDu7zyEloJL5QRPxP0K-27" target="lTDu7zyEloJL5QRPxP0K-31">
          <mxGeometry relative="1" as="geometry" />
        </mxCell>
        <mxCell id="lTDu7zyEloJL5QRPxP0K-30" value="" style="edgeStyle=orthogonalEdgeStyle;rounded=0;orthogonalLoop=1;jettySize=auto;html=1;" edge="1" parent="77e6c97f196da883-1" source="lTDu7zyEloJL5QRPxP0K-31" target="lTDu7zyEloJL5QRPxP0K-33">
          <mxGeometry relative="1" as="geometry" />
        </mxCell>
        <mxCell id="77e6c97f196da883-4" value="4.0账单服务" style="swimlane;html=1;startSize=20;" parent="77e6c97f196da883-1" vertex="1">
          <mxGeometry x="420" y="20" width="200" height="730" as="geometry" />
        </mxCell>
        <mxCell id="lTDu7zyEloJL5QRPxP0K-33" value="Restful:&lt;br&gt;asyncBillDetailData" style="whiteSpace=wrap;html=1;rounded=1;" vertex="1" parent="77e6c97f196da883-4">
          <mxGeometry x="40" y="350" width="120" height="60" as="geometry" />
        </mxCell>
        <mxCell id="lTDu7zyEloJL5QRPxP0K-34" value="end" style="ellipse;whiteSpace=wrap;html=1;rounded=1;" vertex="1" parent="77e6c97f196da883-4">
          <mxGeometry x="60" y="470" width="80" height="80" as="geometry" />
        </mxCell>
        <mxCell id="lTDu7zyEloJL5QRPxP0K-32" value="" style="edgeStyle=orthogonalEdgeStyle;rounded=0;orthogonalLoop=1;jettySize=auto;html=1;" edge="1" parent="77e6c97f196da883-4" source="lTDu7zyEloJL5QRPxP0K-33" target="lTDu7zyEloJL5QRPxP0K-34">
          <mxGeometry relative="1" as="geometry" />
        </mxCell>
      </root>
    </mxGraphModel>
  </diagram>
</mxfile>
